<svg id="Capa_1" enable-background="new 0 0 512.304 512.304" height="512" viewBox="0 0 512.304 512.304" width="512" xmlns="http://www.w3.org/2000/svg"><g><path d="m395.609 414.218c-3.359-2.418-8.049-1.655-10.468 1.706-37.226 51.719-84.236 81.381-128.98 81.381-40.492 0-82.504-23.97-118.296-67.495-46.742-56.84-70.63-133.218-59.441-190.057.801-4.063-1.846-8.007-5.91-8.807-4.061-.801-8.007 1.846-8.807 5.91-6.101 30.987-3.001 67.027 8.962 104.225 11.425 35.523 29.963 69.5 53.61 98.257 38.694 47.053 84.82 72.967 129.882 72.967 49.628 0 101.077-31.936 141.154-87.619 2.42-3.362 1.657-8.049-1.706-10.468z"/><path d="m438.1 204.746c-13.708-28.562-38.531-51.766-73.798-68.983l-13.084-49.379c-1.062-4.004-5.166-6.386-9.171-5.329-4.004 1.062-6.39 5.167-5.329 9.171l13.375 50.476c.938 3.541 3.373 6.486 6.681 8.081 2.055.991 4.071 2.003 6.048 3.036 9.665 10.641 16.255 22.535 19.579 35.367 1.804 6.962 2.65 14.285 2.56 21.831-12.278 1.577-21.799 12.088-21.799 24.788 0 8.447 4.215 15.923 10.647 20.451-2.829 5.949-6.146 11.769-9.927 17.404-4.777-2.764-10.315-4.355-16.22-4.355-17.921 0-32.5 14.579-32.5 32.5 0 5.435 1.348 10.559 3.716 15.065-6.233 3.803-12.672 7.056-19.25 9.72l-6.084-10.538c-3.117-5.396-8.924-8.748-15.155-8.748h-4.228c-4.143 0-7.5 3.357-7.5 7.5s3.357 7.5 7.5 7.5h4.228c.891 0 1.721.479 2.166 1.25l22.228 38.5c.445.771.445 1.729 0 2.5l-22.227 38.498c-.446.772-1.276 1.252-2.167 1.252h-44.455c-.891 0-1.721-.479-2.166-1.25l-22.228-38.5c-.445-.771-.445-1.729 0-2.5 5.808-10.053 16.518-28.561 22.227-38.498.446-.772 1.276-1.252 2.167-1.252h5.228c4.143 0 7.5-3.357 7.5-7.5s-3.357-7.5-7.5-7.5h-5.228c-6.231 0-12.038 3.353-15.156 8.75l-6.081 10.532c-6.577-2.665-13.015-5.916-19.249-9.722 2.367-4.506 3.714-9.627 3.714-15.06 0-17.921-14.579-32.5-32.5-32.5-5.898 0-11.429 1.587-16.202 4.344-3.782-5.638-7.099-11.459-9.928-17.406 6.422-4.529 10.63-11.999 10.63-20.438 0-12.698-9.517-23.206-21.792-24.787-.094-7.549.75-14.872 2.552-21.833 3.326-12.847 9.936-24.755 19.636-35.406 1.945-1.016 3.924-2.013 5.944-2.988 3.337-1.609 5.779-4.587 6.689-8.118l28.826-108.726c3.415-11.077 36.342-16.349 65.127-16.643 28.296.015 61.135 6.054 64.85 15.79.595 1.586 6.279 23.73 6.715 25.131 1.062 4.004 5.169 6.385 9.171 5.329 4.004-1.062 6.39-5.167 5.329-9.171-.305-.97-6.917-26.603-7.202-26.641-4.356-11.418-18.997-18.868-44.758-22.777-42.604-3.954-25.601-3.954-68.203 0-27.111 4.451-41.318 11.141-45.501 25.037l-28.573 107.77c-33.578 16.408-57.723 38.287-71.777 65.045-1.926 3.667-.515 8.201 3.152 10.127 3.593 1.909 8.192.55 10.127-3.152 7.032-13.388 17.017-25.455 29.828-36.119-1.559 3.831-2.865 7.749-3.901 11.752-2.34 9.037-3.336 18.544-2.98 28.316-7.882 4.211-13.26 12.52-13.26 22.063 0 13.763 11.18 24.963 24.935 24.998 3.67 8.013 8.139 15.812 13.334 23.294-3.327 5.098-5.269 11.179-5.269 17.708 0 17.921 14.579 32.5 32.5 32.5 6.989 0 13.464-2.225 18.77-5.993 7.003 4.438 14.261 8.247 21.695 11.388l-8.576 14.855c-3.116 5.397-3.116 12.103 0 17.5l22.229 38.502c3.117 5.396 8.924 8.748 15.155 8.748h44.455c6.231 0 12.038-3.353 15.156-8.75l22.228-38.5c3.116-5.397 3.116-12.103 0-17.5l-8.581-14.863c7.437-3.141 14.7-6.942 21.703-11.378 5.305 3.767 11.779 5.991 18.767 5.991 17.921 0 32.5-14.579 32.5-32.5 0-6.521-1.938-12.595-5.257-17.689 5.198-7.485 9.678-15.291 13.352-23.313 13.741-.052 24.905-11.244 24.905-24.998 0-9.54-5.373-17.846-13.25-22.059.354-9.772-.647-19.28-2.989-28.322-1.037-4.002-2.342-7.92-3.9-11.75 13.901 11.568 24.464 24.79 31.554 39.563 21.462 44.72 13.837 111.2-19.899 173.497-1.973 3.643-.619 8.193 3.023 10.166 3.571 1.954 8.184.653 10.166-3.023 16.903-31.212 27.988-64.444 32.057-96.104 4.403-34.258.314-65.733-11.824-91.025zm-323.938 29.058c0-5.514 4.486-10 10-10s10 4.486 10 10-4.486 10-10 10-10-4.486-10-10zm33 66c0-9.649 7.851-17.5 17.5-17.5s17.5 7.851 17.5 17.5-7.851 17.5-17.5 17.5-17.5-7.85-17.5-17.5zm200.5 17.5c-9.649 0-17.5-7.851-17.5-17.5s7.851-17.5 17.5-17.5 17.5 7.851 17.5 17.5-7.851 17.5-17.5 17.5zm40.5-73.5c-5.514 0-10-4.486-10-10s4.486-10 10-10 10 4.486 10 10-4.486 10-10 10z"/><path d="m234.091 336.554-11.245 19.477c-2.228 3.856-2.228 8.647-.001 12.502l11.246 19.479c2.226 3.855 6.373 6.25 10.825 6.25h22.492c4.452 0 8.6-2.395 10.825-6.25l11.245-19.477c2.228-3.856 2.228-8.647.001-12.502l-11.247-19.479c-2.227-3.854-6.374-6.249-10.824-6.249h-22.492c-4.45-.001-8.598 2.394-10.825 6.249zm31.874 8.75 9.803 16.979-9.803 16.979h-19.605l-9.803-16.979 9.803-16.979z"/></g></svg>