<svg id="Capa_1" enable-background="new 0 0 512 512" height="512" viewBox="0 0 512 512" width="512" xmlns="http://www.w3.org/2000/svg"><g><path d="m512 275.912c0-4.142-3.357-7.5-7.5-7.5s-7.5 3.358-7.5 7.5c0 102.566-12.874 149.712-17.721 167.461-1.417 5.191-2.129 7.797-2.129 10.121 0 5.855 2.608 10.32 5.13 14.637 1.646 2.819 3.35 5.733 4.394 9.214.688 2.293.263 4.71-1.166 6.632-1.43 1.921-3.623 3.023-6.018 3.023h-446.98c-2.395 0-4.588-1.102-6.018-3.023-1.429-1.921-1.854-4.338-1.166-6.632 1.044-3.48 2.747-6.395 4.394-9.214 2.521-4.317 5.13-8.782 5.13-14.637 0-2.388-.756-5.108-2.263-10.529-4.81-17.31-17.587-63.289-17.587-156.474v-93.991c0-4.136 3.364-7.5 7.5-7.5h111v55.5c0 4.142 3.357 7.5 7.5 7.5h45c4.143 0 7.5-3.358 7.5-7.5v-63c0-30.283 6.888-97.562 32.955-135.443 6.911-10.043 19.079-17.057 29.592-17.057 10.645 0 22.905 7.016 29.817 17.061 23.871 34.691 31.496 94.983 32.509 127.939h-102.373c-4.143 0-7.5 3.358-7.5 7.5s3.357 7.5 7.5 7.5h102.5v55.5c0 4.142 3.357 7.5 7.5 7.5h45c4.143 0 7.5-3.358 7.5-7.5v-63c0-29.281-19.809-101.745-67.531-144.561-12.371-11.098-27.837-22.939-54.922-22.939-26.549 0-41.721 11.455-53.856 22.19-44.828 39.654-65.44 104.847-68.332 137.81h-111.359c-12.406 0-22.5 10.093-22.5 22.5v93.991c0 95.23 13.175 142.642 18.135 160.49.776 2.795 1.579 5.682 1.712 6.652-.067 1.776-1.401 4.06-3.079 6.932-1.894 3.243-4.251 7.278-5.809 12.47-2.064 6.88-.789 14.132 3.499 19.896s10.868 9.069 18.052 9.069h446.98c7.184 0 13.764-3.306 18.052-9.069s5.563-13.016 3.499-19.896c-1.558-5.193-3.915-9.228-5.809-12.471-1.678-2.872-3.012-5.156-3.079-6.932.127-.927.873-3.661 1.597-6.309 4.991-18.278 18.25-66.834 18.25-171.411zm-148.5-98.412v55.5h-30v-55.5c0-29.792-5.564-85.524-25.119-126.217 38.384 39.841 55.119 101.643 55.119 126.217zm-215 0c0-24.575 16.806-86.089 55.315-126.093-24.994 51.63-25.315 122.737-25.315 126.093v55.5h-30z"/><path d="m489.5 170h-88.5c-4.143 0-7.5 3.358-7.5 7.5s3.357 7.5 7.5 7.5h88.5c4.136 0 7.5 3.364 7.5 7.5v53.412c0 4.142 3.357 7.5 7.5 7.5s7.5-3.358 7.5-7.5v-53.412c0-12.407-10.094-22.5-22.5-22.5z"/></g></svg>