<svg id="Capa_1" enable-background="new 0 0 512 512" height="512" viewBox="0 0 512 512" width="512" xmlns="http://www.w3.org/2000/svg"><g><g><path d="m96.002 403.067c0 16.969 13.756 30.725 30.725 30.725h168.527c16.969 0 30.725-13.756 30.725-30.725v-364.842c0-16.969-13.756-30.725-30.725-30.725h-178.527c-16.969 0-30.725 13.756-30.725 30.725v317.075z" fill="#f2fbff"/><path d="m360.982 38.22v374.85c0 16.97-13.76 30.72-30.73 30.72h-41.74c16.97 0 30.72-13.75 30.72-30.72v-374.85c0-16.96-13.75-30.72-30.72-30.72h41.74c16.969 0 30.73 13.76 30.73 30.72z" fill="#dff6fd"/><path d="m360.982 355.3v57.77c0 16.97-13.76 30.72-30.73 30.72h-213.53c-16.96 0-30.72-13.75-30.72-30.72v-57.77z" fill="#b3dafe"/><path d="m305.964 81.243c7.272 0 13.168 5.895 13.168 13.168v200.606c0 7.272-5.895 13.168-13.168 13.168h-164.952c-7.272 0-13.168-5.896-13.168-13.168v-200.607c0-7.272 5.895-13.168 13.168-13.168h164.952z" fill="#ade194"/><circle cx="223.49" cy="399.546" fill="#f2fbff" r="18.159"/><path d="m256.914 254.773h-5.926l-5.052-6.172-9.948 6.172h-22.421l-3.806-6.172-11.194 6.172h-8.501c-7.537 0-13.904-5.593-14.875-13.067l-4.008-30.844c-.389-2.992-1.62-27.396 1.398-27.396h101.818c3.017 0 1.786 24.404 1.398 27.396l-4.008 30.844c-.971 7.474-7.338 13.067-14.875 13.067z" fill="#8ac9fe"/><path d="m279.358 183.461c.389-2.992-1.941-5.645-4.958-5.645h-101.819c-3.017 0-5.347 2.652-4.958 5.645l3.561 27.401h104.614z" fill="#b3dafe"/><path d="m415.998 445.801c0 6.518-3.173 12.627-8.505 16.376l-16.647 11.703-7 24.32c0 3.48-2.821 6.301-6.301 6.301h-5.389-.001-57.976c-3.48 0-6.301-2.821-6.301-6.301v-27.523l-32.707-20.223c-5.447-3.368-8.376-9.648-7.457-15.986l7.272-50.103c.529-3.643 3.079-6.65 6.547-7.784.177-.058.357 1.889.538 1.841l6.392-1.687 8.085-4.134v-87.274c0-8.937 7.245-16.181 16.181-16.181 8.936 0 16.181 7.245 16.181 16.181v67.171c0-8.937 7.244-16.181 16.181-16.181s16.181 7.244 16.181 16.181v6.432c0-8.937 7.245-16.181 16.181-16.181 8.937 0 16.181 7.244 16.181 16.181v6.432c0-4.69 1.996-8.912 5.185-11.866 1.625-1.506 3.56.318 5.698-.423 1.697-.586 3.503-.892 5.299-.892 8.936 0 6.181 4.244 6.181 13.181v80.439z" fill="#fed2a4"/><path d="m425.999 365.36v80.44c0 6.52-3.17 12.63-8.51 16.38l-16.64 11.7v24.32c0 3.48-2.82 6.3-6.3 6.3h-22c3.48 0 6.3-2.82 6.3-6.3v-24.32l16.64-11.7c5.34-3.75 8.51-9.86 8.51-16.38v-80.44c0-4.68-1.99-8.9-5.17-11.86 1.62-1.51 3.56-2.69 5.69-3.43 1.7-.58 3.5-.89 5.3-.89 8.939 0 16.18 7.25 16.18 16.18z" fill="#ffbd86"/></g><g><path d="m187.772 36.627c-4.142 0-7.5 3.357-7.5 7.5s3.358 7.5 7.5 7.5h71.436c4.142 0 7.5-3.357 7.5-7.5s-3.358-7.5-7.5-7.5z"/><path d="m223.49 373.887c-14.148 0-25.659 11.511-25.659 25.659s11.511 25.659 25.659 25.659 25.659-11.511 25.659-25.659-11.51-25.659-25.659-25.659zm0 36.318c-5.877 0-10.659-4.781-10.659-10.659s4.782-10.659 10.659-10.659c5.878 0 10.659 4.781 10.659 10.659s-4.781 10.659-10.659 10.659z"/><path d="m304.049 285.328c0-4.787 3.895-8.682 8.681-8.682 4.787 0 8.681 3.894 8.681 8.682v67.171c0 4.143 3.358 7.5 7.5 7.5s7.5-3.357 7.5-7.5c0-4.787 3.894-8.682 8.681-8.682s8.682 3.895 8.682 8.682v6.432c0 4.143 3.358 7.5 7.5 7.5s7.5-3.357 7.5-7.5c0-4.787 3.895-8.682 8.681-8.682 4.787 0 8.681 3.895 8.681 8.682v6.432c0 4.143 3.358 7.5 7.5 7.5s7.5-3.357 7.5-7.5c0-4.69 3.961-8.681 8.681-8.681 4.787 0 8.682 3.895 8.682 8.681v24.871c0 4.143 3.358 7.5 7.5 7.5s7.5-3.357 7.5-7.5v-24.871c0-13.058-10.624-23.681-23.682-23.681-2.637 0-5.243.438-7.755 1.306-1.83.634-3.544 1.478-5.121 2.5-4.277-6.182-11.417-10.238-19.486-10.238-3.189 0-6.225.646-9.005 1.794.013-.183.028-.366.028-.552v-191.08c0-4.143-3.358-7.5-7.5-7.5s-7.5 3.357-7.5 7.5v184.944c-2.609-.991-5.434-1.539-8.386-1.539-3.063 0-5.991.584-8.681 1.647v-45.137c0-7.865-3.857-14.842-9.775-19.151v-171.766c0-11.396-9.272-20.667-20.668-20.667h-164.956c-11.396 0-20.668 9.271-20.668 20.667v200.605c0 11.397 9.272 20.668 20.668 20.668h24.783c4.142 0 7.5-3.357 7.5-7.5s-3.358-7.5-7.5-7.5h-24.783c-3.125 0-5.667-2.543-5.667-5.668v-200.605c0-3.125 2.542-5.667 5.667-5.667h164.957c3.126 0 5.668 2.542 5.668 5.667v167.264c-12.551.574-22.587 10.963-22.587 23.654v15.355h-90.568c-4.142 0-7.5 3.357-7.5 7.5s3.358 7.5 7.5 7.5h90.568v32.117h-195.548v-309.575c0-12.806 10.418-23.225 23.225-23.225h213.527c12.806 0 23.225 10.419 23.225 23.225v74.501c0 4.143 3.358 7.5 7.5 7.5s7.5-3.357 7.5-7.5v-74.501c-.001-21.078-17.148-38.225-38.226-38.225h-213.526c-21.078 0-38.225 17.147-38.225 38.225v374.843c0 21.077 17.147 38.225 38.225 38.225h147.892c.141 0 .279-.013.418-.021 1.689 2.167 3.767 4.062 6.191 5.561l29.151 18.025v23.342c0 7.609 6.191 13.801 13.801 13.801h80.366c7.609 0 13.8-6.191 13.8-13.801v-20.424l13.461-9.464c7.32-5.147 11.691-13.562 11.691-22.511v-22.882c0-4.143-3.358-7.5-7.5-7.5s-7.5 3.357-7.5 7.5v22.881c0 4.071-1.989 7.9-5.319 10.241l-16.647 11.703c-1.997 1.404-3.186 3.693-3.186 6.136v23.12h-77.967v-26.323c0-2.599-1.345-5.013-3.556-6.379l-32.707-20.224c-2.908-1.798-4.47-5.146-3.978-8.529l7.272-50.103c.123-.854.743-1.547 1.578-1.767l5.062-1.336v36.005c0 4.142 3.358 7.5 7.5 7.5s7.5-3.358 7.5-7.5v-133.016zm-43.983 150.964h-143.34c-12.806 0-23.225-10.419-23.225-23.225v-50.267h195.548v4.024l-8.891 2.347c-6.662 1.759-11.605 7.3-12.594 14.117z"/><path d="m160.185 184.428 7.568 58.245c1.452 11.174 11.044 19.601 22.312 19.601h66.848c11.268 0 20.86-8.427 22.312-19.601l7.568-58.245c.954-7.341-5.024-14.111-12.395-14.111h-25.094l-6.634-29.796c-.9-4.043-4.906-6.602-8.951-5.69-4.043.899-6.591 4.907-5.691 8.95l5.909 26.536h-20.896l5.909-26.536c.9-4.043-1.647-8.051-5.691-8.95-4.041-.905-8.051 1.647-8.951 5.69l-6.634 29.796h-25.094c-7.416-.001-13.347 6.782-12.395 14.111zm22.443 56.311-2.908-22.377h18.846v28.911h-8.501c-3.755 0-6.953-2.808-7.437-6.534zm53.36-22.377v28.911h-22.421v-28.911zm20.926 28.911h-5.926v-28.911h16.271l-2.908 22.377c-.483 3.726-3.681 6.534-7.437 6.534zm-62.579-61.957-.026.115c-.9 4.043 1.647 8.051 5.691 8.95.549.123 1.097.182 1.637.182 3.437 0 6.536-2.378 7.314-5.872l.751-3.375h27.576l.751 3.375c.778 3.494 3.877 5.872 7.314 5.872.539 0 1.088-.059 1.637-.182 4.043-.899 6.591-4.907 5.691-8.95l-.026-.115h18.908l-2.345 18.046h-91.437l-2.345-18.046z"/></g></g></svg>