<?xml version="1.0" encoding="iso-8859-1"?>
<!-- Generator: Adobe Illustrator 19.0.0, SVG Export Plug-In . SVG Version: 6.00 Build 0)  -->
<svg version="1.1" id="Capa_1" xmlns="http://www.w3.org/2000/svg" xmlns:xlink="http://www.w3.org/1999/xlink" x="0px" y="0px"
	 viewBox="0 0 480.02 480.02" style="enable-background:new 0 0 480.02 480.02;" xml:space="preserve">
<g>
	<g>
		<path d="M248.01,272.02v-80h-16v-104h-0.312c0.488-16.8-9.848-38.68-28.952-58.264C184.81,11.42,163.33,0.02,146.626,0.02
			c-7.3-0.282-14.396,2.442-19.632,7.536c-6.006,6.785-8.579,15.944-6.984,24.864v159.6h-16v80h-16v208h176v-208H248.01z
			 M138.41,18.732c2.252-1.985,5.217-2.965,8.208-2.712c12.368,0,29.896,9.784,44.672,24.92c21.488,22,29.168,47.016,21.68,54.68
			c-2.243,1.978-5.195,2.96-8.176,2.72c-12.36,0-29.904-9.784-44.672-24.92C138.634,51.412,130.954,26.42,138.41,18.732z
			 M215.994,112.316v79.704H136.01V69.54c3.836,5.328,8.067,10.361,12.656,15.056c17.912,18.344,39.416,29.744,56.128,29.744
			C208.621,114.373,212.421,113.687,215.994,112.316z M120.01,208.02h112v64h-112V208.02z M248.01,464.02h-144v-176h144V464.02z"/>
	</g>
</g>
<g>
	<g>
		<path d="M352.01,272.02v-112h24v-16h-24v-16h24v-16h-24v-16h24v-16h-24v-16h24v-16h-24v-16h16v-16h-16v-16h-16v16h-16v16h16v16
			h-24v16h24v16h-24v16h24v16h-24v16h24v16h-24v16h24v112h-40v208h96v-208H352.01z M376.01,464.02h-64v-176h64V464.02z"/>
	</g>
</g>
<g>
</g>
<g>
</g>
<g>
</g>
<g>
</g>
<g>
</g>
<g>
</g>
<g>
</g>
<g>
</g>
<g>
</g>
<g>
</g>
<g>
</g>
<g>
</g>
<g>
</g>
<g>
</g>
<g>
</g>
</svg>
