<svg id="Layer_1" enable-background="new 0 0 512.002 512.002" height="512" viewBox="0 0 512.002 512.002" width="512" xmlns="http://www.w3.org/2000/svg"><g><g clip-rule="evenodd" fill-rule="evenodd"><path d="m296.003 146.002v180h51.276c10.986-12.275 26.952-19.999 44.721-19.999 17.77 0 33.735 7.725 44.721 19.999h55.28v-40c0-22-18.001-40-40-40h-20.999-74.999v-60.001h44.998l-10-20c-4.919-9.838-13.757-20-30.001-20h-64.997z" fill="#ff5d7d"/><path d="m356.005 186.002v60h74.998l-30.001-60z" fill="#ccf5fc"/><path d="m296.003 326.002v-180-40.002c0-11-9.003-20-20-20h-236.003c-10.997 0-20 9.002-20 20v220.003h55.281c10.986-12.275 26.952-19.999 44.721-19.999s33.735 7.725 44.721 19.999h131.28z" fill="#ffc144"/><path d="m392 306.003c-17.77 0-33.735 7.725-44.722 20-9.501 10.615-15.278 24.633-15.278 40 0 33.137 26.863 60 60 60s60-26.863 60-60c0-15.367-5.777-29.385-15.278-40-10.986-12.275-26.952-20-44.722-20zm0 40c11.046 0 20 8.954 20 20 0 11.045-8.954 20-20 20s-20-8.955-20-20c.001-11.046 8.955-20 20-20z" fill="#6d91ac"/><ellipse cx="392" cy="366.003" fill="#fff" rx="20" ry="20" transform="matrix(.526 -.851 .851 .526 -125.427 507.039)"/><path d="m436.722 326.002c9.501 10.616 15.278 24.633 15.278 40h40.002c5.498 0 10-4.499 10-10v-20c0-5.5-4.501-10-10-10z" fill="#c5d3de"/><path d="m332.001 366.003c0-15.367 5.777-29.385 15.278-40h-91.277-91.277c9.501 10.615 15.278 24.633 15.278 39.999z" fill="#c5d3de"/><path d="m180.002 366.003c0-15.367-5.777-29.385-15.278-40-10.986-12.275-26.952-20-44.722-20s-33.735 7.725-44.722 20c-9.501 10.615-15.278 24.633-15.278 40 0 33.137 26.863 60 60 60 33.137-.001 60-26.863 60-60zm-60-20c11.045 0 20 8.954 20 20 0 11.045-8.954 20-20 20s-20-8.955-20-20c0-11.046 8.955-20 20-20z" fill="#6d91ac"/><ellipse cx="120.002" cy="366.003" fill="#fff" rx="20" ry="20" transform="matrix(.707 -.707 .707 .707 -223.655 192.054)"/><path d="m60.002 366.003c0-15.367 5.777-29.385 15.278-40h-55.28c-5.499 0-10 4.5-10 10v20c0 5.5 4.501 10 10 10z" fill="#c5d3de"/><path d="m180.106 162.844h-44.21-22.105c-4.053 0-7.032 3.33-7.368 7.368l-7.369 88.421c-.337 4.039 3.316 7.368 7.368 7.368h103.158c4.052 0 7.705-3.329 7.368-7.368l-7.369-88.421c-.336-4.038-3.316-7.368-7.368-7.368z" fill="#ff5d7d"/></g><g><path d="m120.002 336.002c-16.542 0-30 13.458-30 30s13.458 30 30 30 30-13.458 30-30-13.458-30-30-30zm0 40c-5.514 0-10-4.486-10-10s4.486-10 10-10 10 4.486 10 10-4.486 10-10 10z"/><path d="m392 336.002c-16.542 0-29.999 13.458-29.999 30s13.457 30 29.999 30 30-13.458 30-30-13.458-30-30-30zm0 40c-5.514 0-9.999-4.486-9.999-10s4.485-10 9.999-10 10 4.486 10 10-4.486 10-10 10z"/><path d="m502.002 318.708v-32.706c0-27.57-22.43-50-49.999-50h-14.819l-37.237-74.472c-8.35-16.701-21.816-25.528-38.944-25.528h-54.999v-30.002c0-16.542-13.458-30-30-30h-236.004c-16.542 0-30 13.458-30 30v212.708c-5.968 3.465-10 9.91-10 17.294v20c0 11.028 8.972 20 20 20h30.728c4.869 33.877 34.072 60 69.274 60s64.406-26.123 69.274-60h133.45c4.869 33.877 34.072 60 69.273 60s64.406-26.123 69.274-60h30.728c11.028 0 20-8.972 20-20v-20c.001-7.384-4.031-13.829-9.999-17.294zm-87.18-82.706h-48.817v-40h28.817zm-374.822-140.002h236.003c5.514 0 10 4.486 10 10v40.002 54.997c0 5.522 4.478 10 10 10s10-4.478 10-10v-44.997h54.999c5.933 0 14.57 1.5 21.056 14.473l2.764 5.527h-28.816c-5.522 0-10 4.478-10 10v60c0 5.522 4.478 10 10 10h74.998 21c16.542 0 29.999 13.458 29.999 30v30h-41.08c-12.63-12.36-29.897-19.999-48.922-19.999s-36.292 7.639-48.922 19.999h-37.075v-25.003c0-5.522-4.478-10-10-10s-10 4.478-10 10v25.003h-117.08c-12.63-12.36-29.897-19.999-48.922-19.999s-36.292 7.639-48.922 19.999h-41.08v-210.002c0-5.514 4.486-10 10-10zm282.727 260.002h-133.45c-1.015-7.059-3.08-13.781-6.043-20h145.535c-2.963 6.219-5.028 12.941-6.042 20zm-302.727-20h36.77c-2.963 6.219-5.028 12.941-6.043 20h-30.727zm100.002 80c-27.57 0-50-22.43-50-50 0-27.569 22.43-49.999 50-49.999s50 22.43 50 49.999c0 27.57-22.43 50-50 50zm271.998 0c-27.569 0-49.999-22.43-49.999-50 0-27.569 22.43-49.999 49.999-49.999 27.57 0 50 22.43 50 49.999 0 27.57-22.43 50-50 50zm100.002-60h-30.728c-1.015-7.059-3.08-13.781-6.043-20h36.77v20z"/><path d="m106.423 276.001h103.157c4.917 0 9.648-2.076 12.979-5.697 3.191-3.469 4.737-7.908 4.354-12.501l-7.369-88.42c-.784-9.429-8.236-16.539-17.333-16.539h-12.105v-4.738c0-17.702-14.402-32.104-32.104-32.104-17.703 0-32.105 14.402-32.105 32.104v4.738h-12.104c-9.098 0-16.55 7.11-17.334 16.538l-7.369 88.422c-.382 4.594 1.165 9.034 4.356 12.502 3.33 3.619 8.06 5.695 12.977 5.695zm39.473-127.896c0-6.675 5.431-12.104 12.105-12.104s12.104 5.43 12.104 12.104v4.738h-24.21v-4.738zm-29.657 24.739h10.02c1.158 4.242 5.028 7.365 9.637 7.365s8.48-3.123 9.637-7.365h24.935c1.158 4.242 5.028 7.365 9.637 7.365s8.48-3.123 9.637-7.365h10.02l6.931 83.157h-97.386z"/><path d="m296.003 256.002c5.522 0 10-4.478 10-10v-.007c0-5.522-4.478-9.996-10-9.996s-10 4.48-10 10.003 4.477 10 10 10z"/></g></g></svg>