<svg height="512" viewBox="0 0 64 64" width="512" xmlns="http://www.w3.org/2000/svg"><g id="mobile-screen-shop-store-package"><path d="m7 53h36a0 0 0 0 1 0 0v6a2 2 0 0 1 -2 2h-32a2 2 0 0 1 -2-2v-6a0 0 0 0 1 0 0z" fill="#e9e9ea"/><path d="m7 11h36v42h-36z" fill="#57a4ff"/><path d="m32 50h14v11h-14z" fill="#91dc5a"/><path d="m32 47h14v3h-14z" fill="#64c37d"/><path d="m60 61h-20l2-19h16z" fill="#ea348b"/><g fill="#ff9811"><circle cx="20" cy="38" r="2"/><circle cx="30" cy="38" r="2"/><path d="m33 25-1 8h-13v-7.92-.08z"/></g><path d="m22 7v6a3 3 0 0 1 -6 0v-6z" fill="#ff5023"/><path d="m16 7v6a3 3 0 0 1 -6 0v-6z" fill="#ffda44"/><path d="m28 7v6a3 3 0 0 1 -6 0v-6z" fill="#ffda44"/><path d="m10 7v6a3 3 0 0 1 -6 0l3-6z" fill="#ff5023"/><path d="m34 7v6a3 3 0 0 1 -6 0v-6z" fill="#ff5023"/><path d="m43 16a3 3 0 0 1 -3-3v-6h3l3 6a3 3 0 0 1 -3 3z" fill="#ff5023"/><path d="m40 7v6a3 3 0 0 1 -6 0v-6z" fill="#ffda44"/><path d="m43 5v2h-36v-2a2.006 2.006 0 0 1 2-2h32a2.006 2.006 0 0 1 2 2z" fill="#e9e9ea"/><rect fill="#00d7df" height="2" rx="1" width="4" x="23" y="56"/><path d="m30 35h-10a3 3 0 1 0 3 3 2.966 2.966 0 0 0 -.184-1h4.368a2.966 2.966 0 0 0 -.184 1 3 3 0 1 0 3-3zm-9 3a1 1 0 1 1 -1-1 1 1 0 0 1 1 1zm9 1a1 1 0 1 1 1-1 1 1 0 0 1 -1 1z" fill="#2d2d30"/><path d="m33.75 24.34a.981.981 0 0 0 -.75-.34h-13v-3a1 1 0 0 0 -1-1h-4v2h3v11a1 1 0 0 0 1 1h13a1 1 0 0 0 .99-.88l1-8a.968.968 0 0 0 -.24-.78zm-2.63 7.66h-11.12v-6h11.87z" fill="#2d2d30"/><path d="m55 46h-2v-7a3 3 0 0 0 -6 0v7h-2v-7a5 5 0 0 1 10 0z" fill="#c61469"/></g></svg>