<svg id="Capa_1" enable-background="new 0 0 512 512" height="512" viewBox="0 0 512 512" width="512" xmlns="http://www.w3.org/2000/svg"><g><path d="m350.69 446.75h-332.88l18.22-326.25h118.22l15 7.94 15-7.94h146.81z" fill="#ff3d58"/><path d="m350.69 446.75h-166.44v-326.25h146.81z" fill="#d20173"/><circle cx="363.69" cy="381.5" fill="#97cbff" r="130.5"/><path d="m494.19 381.5c0 72.07-58.43 130.5-130.5 130.5v-261c72.07 0 130.5 58.43 130.5 130.5z" fill="#7f7cff"/><path d="m428.86 353.73-65.17 65.17-11.59 11.59-53.58-53.58 21.22-21.21 32.36 32.36 11.59-11.59 43.95-43.96z" fill="#f1f1f1"/><path d="m428.86 353.73-65.17 65.17v-42.43l43.95-43.96z" fill="#d6d6ea"/><path d="m273.91 89.66v106.09h-30v-106.09c0-32.9-26.76-59.66-59.66-59.66s-59.66 26.76-59.66 59.66v106.09h-30v-106.09c0-49.44 40.22-89.66 89.66-89.66s89.66 40.22 89.66 89.66z" fill="#4e588b"/><path d="m273.91 89.66v106.09h-30v-106.09c0-32.9-26.76-59.66-59.66-59.66v-30c49.44 0 89.66 40.22 89.66 89.66z" fill="#293e65"/><path d="m154.253 120.5h30v75.25h-30z" fill="#4e588b"/><path d="m201.88 207.41v76.22h-65.25v-76.22l32.62-21.66.01.01z" fill="#fe0"/><path d="m201.88 207.41v76.22h-32.62v-97.87z" fill="#fc0"/></g></svg>