<svg id="Capa_1" enable-background="new 0 0 512 512" height="512" viewBox="0 0 512 512" width="512" xmlns="http://www.w3.org/2000/svg" xmlns:xlink="http://www.w3.org/1999/xlink"><linearGradient id="SVGID_1_" gradientUnits="userSpaceOnUse" x1="256" x2="256" y1="512" y2="0"><stop offset="0" stop-color="#fd3a84"/><stop offset="1" stop-color="#ffa68d"/></linearGradient><g><g><g><path d="m256 330c90.981 0 165-74.019 165-165s-74.019-165-165-165-165 74.019-165 165 74.019 165 165 165zm0-300c74.439 0 135 60.561 135 135s-60.561 135-135 135-135-60.561-135-135 60.561-135 135-135zm0 240c12.011 0 23.796-2.015 35.029-5.989 7.81-2.763 11.901-11.334 9.138-19.144s-11.333-11.9-19.144-9.138c-8.011 2.834-16.43 4.271-25.023 4.271-41.355 0-75-33.645-75-75s33.645-75 75-75 75 33.645 75 75c0 8.271-6.729 15-15 15s-15-6.729-15-15v-30c0-8.284-6.716-15-15-15h-30c-24.813 0-45 20.187-45 45s20.187 45 45 45c11.517 0 22.032-4.354 30-11.495 7.968 7.141 18.483 11.495 30 11.495 24.813 0 45-20.187 45-45 0-57.897-47.103-105-105-105s-105 47.103-105 105 47.103 105 105 105zm15-105c0 8.271-6.729 15-15 15s-15-6.729-15-15 6.729-15 15-15h15zm166 197h-362c-41.355 0-75 33.645-75 75s33.645 75 75 75h362c41.355 0 75-33.645 75-75s-33.645-75-75-75zm0 120h-362c-24.813 0-45-20.187-45-45s20.187-45 45-45h362c24.813 0 45 20.187 45 45s-20.187 45-45 45zm-121-60h-30c-8.284 0-15 6.716-15 15s6.716 15 15 15h30c8.284 0 15-6.716 15-15s-6.716-15-15-15zm90 0h-30c-8.284 0-15 6.716-15 15s6.716 15 15 15h30c8.284 0 15-6.716 15-15s-6.716-15-15-15zm-180 0h-30c-8.284 0-15 6.716-15 15s6.716 15 15 15h30c8.284 0 15-6.716 15-15s-6.716-15-15-15zm-90 0h-30c-8.284 0-15 6.716-15 15s6.716 15 15 15h30c8.284 0 15-6.716 15-15s-6.716-15-15-15z" fill="url(#SVGID_1_)"/></g></g></g></svg>