<?xml version="1.0" encoding="iso-8859-1"?>
<!-- Generator: Adobe Illustrator 19.0.0, SVG Export Plug-In . SVG Version: 6.00 Build 0)  -->
<svg version="1.1" id="Layer_1" xmlns="http://www.w3.org/2000/svg" xmlns:xlink="http://www.w3.org/1999/xlink" x="0px" y="0px"
	 viewBox="0 0 512 512" style="enable-background:new 0 0 512 512;" xml:space="preserve">
<g>
	<g>
		<path d="M511.55,134.018c-2.906-43.954-19.434-71.574-33.51-87.41c-17.07-19.205-34.315-25.818-35.04-26.091
			c-2.485-0.932-5.276-0.484-7.343,1.176c-2.318,1.86-57.473,46.789-121.974,154.291c-7.594,12.658-14.293,24.058-20.202,34.116
			c-2.102,3.578-0.906,8.183,2.672,10.286c3.58,2.101,8.183,0.907,10.287-2.672c5.893-10.03,12.573-21.398,20.132-33.997
			C380.465,93.892,428.522,48.034,441.583,36.415c12.111,6.362,48.849,30.717,54.62,94.063
			c-22.573,13.128-42.48,29.927-59.283,50.013c-40.531,3.096-63.31,60.731-85.355,116.526
			c-18.648,47.197-37.931,95.991-64.004,99.759h-66.09l-24.18-78.584c47.408-7.75,63.574-24.227,94.769-76.164
			c2.137-3.558,0.984-8.174-2.573-10.311c-3.557-2.136-8.173-0.985-10.311,2.572c-29.192,48.602-42.038,62.526-86.348,69.397
			c-1.25-4.063-1.963-9.184-6.593-10.728l-24.047-8.016c-1.518-0.505-3.236-0.505-4.753,0l-24.047,8.016
			c-2.302,0.768-4.092,2.6-4.805,4.92l-4.092,13.299c-28.387,5.55-58.692,18.951-83.49,36.997C14.944,367.136,0,387.59,0,404.29
			c0,4.15,3.364,7.515,7.515,7.515h280.548c0.312,0,0.623-0.02,0.933-0.058c35.133-4.392,55.25-55.304,76.547-109.206
			c19.168-48.512,38.934-98.543,67.303-106.161V404.29c0,4.15,3.364,7.515,7.515,7.515h24.047c4.151,0,7.515-3.365,7.515-7.515
			c0-4.004,0.013-8.008,0.037-12.01c0.039-6.667,0.106-13.335,0.228-20.001c2.041-117.477,15.464-141.57,25.478-159.542
			c7.691-13.806,14.335-25.73,14.335-64.948C512,143.211,511.934,138.581,511.55,134.018z M16.648,396.775
			c4.203-10.692,16.315-24.165,33.196-36.45c20.772-15.117,45.638-26.732,69.571-32.653l-21.263,69.103H16.648z M152.297,396.775
			h-38.421l27.934-90.782l10.487-3.496V396.775z M167.327,396.775v-94.278l10.487,3.496l27.934,90.782H167.327z M456.905,396.775
			h-9.031V372.06h9.281C457.022,379.891,456.936,388.115,456.905,396.775z M484.535,205.422
			c-10.884,19.534-24.119,43.315-27.048,151.61h-9.613V190.8c14.099-16.992,30.566-31.484,49.094-43.214
			c0,0.068,0.002,0.135,0.002,0.203C496.971,183.103,491.482,192.951,484.535,205.422z"/>
	</g>
</g>
<g>
	<g>
		<path d="M400.282,444.869c-13.536,0-24.548-11.013-24.548-24.548c0-4.15-3.364-7.515-7.515-7.515s-7.515,3.365-7.515,7.515
			c0,13.535-11.012,24.548-24.548,24.548c-4.151,0-7.515,3.365-7.515,7.515c0,4.15,3.364,7.515,7.515,7.515
			c13.536,0,24.548,11.013,24.548,24.548c0,4.15,3.364,7.515,7.515,7.515s7.515-3.365,7.515-7.515
			c0-13.535,11.012-24.548,24.548-24.548c4.151,0,7.515-3.365,7.515-7.515C407.796,448.234,404.433,444.869,400.282,444.869z
			 M368.219,461.268c-2.472-3.409-5.476-6.413-8.884-8.884c3.409-2.472,6.412-5.475,8.884-8.884
			c2.472,3.409,5.476,6.413,8.884,8.884C373.695,454.856,370.691,457.86,368.219,461.268z"/>
	</g>
</g>
<g>
	<g>
		<path d="M87.671,188.368c-13.536,0-24.548-11.013-24.548-24.548c0-4.15-3.364-7.515-7.515-7.515c-4.151,0-7.515,3.365-7.515,7.515
			c0,13.535-11.011,24.548-24.548,24.548c-4.151,0-7.515,3.365-7.515,7.515c0,4.15,3.364,7.515,7.515,7.515
			c13.536,0,24.548,11.013,24.548,24.548c0,4.15,3.364,7.515,7.515,7.515c4.151,0,7.515-3.365,7.515-7.515
			c0-13.535,11.011-24.548,24.548-24.548c4.151,0,7.515-3.365,7.515-7.515C95.186,191.733,91.822,188.368,87.671,188.368z
			 M55.609,204.767c-2.472-3.409-5.476-6.413-8.884-8.884c3.409-2.472,6.413-5.475,8.884-8.884c2.472,3.409,5.476,6.413,8.884,8.884
			C61.084,198.355,58.08,201.358,55.609,204.767z"/>
	</g>
</g>
<g>
	<g>
		<path d="M296.078,68.133c-17.956,0-32.564-14.609-32.564-32.564c0-4.15-3.364-7.515-7.515-7.515s-7.515,3.365-7.515,7.515
			c0,17.955-14.608,32.564-32.564,32.564c-4.151,0-7.515,3.365-7.515,7.515c0,4.15,3.364,7.515,7.515,7.515
			c17.956,0,32.564,14.609,32.564,32.564c0,4.15,3.364,7.515,7.515,7.515s7.515-3.365,7.515-7.515
			c0-17.955,14.608-32.564,32.564-32.564c4.151,0,7.515-3.365,7.515-7.515C303.593,71.498,300.229,68.133,296.078,68.133z
			 M256,90.083c-3.715-5.785-8.65-10.72-14.434-14.435c5.784-3.714,10.719-8.65,14.434-14.435c3.715,5.785,8.65,10.72,14.434,14.435
			C264.65,79.363,259.715,84.298,256,90.083z"/>
	</g>
</g>
<g>
</g>
<g>
</g>
<g>
</g>
<g>
</g>
<g>
</g>
<g>
</g>
<g>
</g>
<g>
</g>
<g>
</g>
<g>
</g>
<g>
</g>
<g>
</g>
<g>
</g>
<g>
</g>
<g>
</g>
</svg>
