<svg id="Capa_1" enable-background="new 0 0 512.021 512.021" height="512" viewBox="0 0 512.021 512.021" width="512" xmlns="http://www.w3.org/2000/svg"><g><path d="m110 159.51c0-8.284-6.716-15-15-15h-80c-8.284 0-15 6.716-15 15s6.716 15 15 15h80c8.284 0 15-6.716 15-15z"/><path d="m118 215.51c0-8.284-6.716-15-15-15h-64c-8.284 0-15 6.716-15 15s6.716 15 15 15h64c8.284 0 15-6.716 15-15z"/><path d="m112 256.51h-49c-8.284 0-15 6.716-15 15s6.716 15 15 15h49c8.284 0 15-6.716 15-15s-6.716-15-15-15z"/><path d="m497 56.51h-114v-25c0-8.284-6.716-15-15-15h-168c-8.284 0-15 6.716-15 15v114h-21.298l-11.931-67.606c-1.264-7.168-7.493-12.394-14.771-12.394h-80c-8.284 0-15 6.716-15 15s6.716 15 15 15h67.415l42.884 243.007c-21.278 4.483-37.299 23.402-37.299 45.993 0 25.916 21.084 47 47 47h12.195c-11.969 30.737 10.85 64 43.805 64 32.992 0 55.764-33.291 43.805-64h56.39c-11.969 30.737 10.85 64 43.805 64 32.992 0 55.764-33.291 43.805-64h28.195c8.284 0 15-6.716 15-15s-6.716-15-15-15h-272c-9.374 0-17-7.626-17-17s7.626-17 17-17h280c7.105 0 13.235-4.985 14.685-11.94l40-192c.456-2.188.315 5.377.315-92.06 0-8.284-6.716-15-15-15zm-247 392c0 9.374-7.626 17-17 17s-17-7.626-17-17 7.626-17 17-17 17 7.626 17 17zm144 0c0 9.374-7.626 17-17 17s-17-7.626-17-17 7.626-17 17-17 17 7.626 17 17zm23.5-362v17.759c0 8.284 6.716 15 15 15s15-6.716 15-15v-17.759h34.5v59h-99v-59zm-202.5-40h54v25c0 8.284 6.716 15 15 15s15-6.716 15-15v-25h54v99h-138zm229.803 291h-247.219l-28.588-162h309.557z"/></g></svg>