<?xml version="1.0" encoding="iso-8859-1"?>
<!-- Generator: Adobe Illustrator 19.0.0, SVG Export Plug-In . SVG Version: 6.00 Build 0)  -->
<svg version="1.1" id="Capa_1" xmlns="http://www.w3.org/2000/svg" xmlns:xlink="http://www.w3.org/1999/xlink" x="0px" y="0px"
	 viewBox="0 0 512 512" style="enable-background:new 0 0 512 512;" xml:space="preserve">
<g>
	<g>
		<path d="M511.804,436.537l-11.07-47.6c-0.005-0.034-0.005-0.067-0.01-0.1c-0.061-0.394-0.16-0.772-0.278-1.14l-71.28-306.503
			v-40.56c0-4.142-3.357-7.5-7.5-7.5h-33.104c-0.01,0-0.019-0.002-0.029-0.002c-0.01,0-0.019,0.002-0.029,0.002H123.495
			c-0.01,0-0.019-0.002-0.029-0.002s-0.019,0.002-0.029,0.002H90.334c-4.142,0-7.5,3.358-7.5,7.5v40.555L11.551,387.704
			c-0.117,0.366-0.215,0.741-0.276,1.133c-0.005,0.032-0.005,0.064-0.01,0.096l-11.07,47.604c-0.473,2.034-0.077,4.172,1.093,5.901
			c1.17,1.729,3.008,2.892,5.072,3.21l215.367,33.132c0.379,0.059,0.761,0.087,1.14,0.087c1.621,0,3.21-0.526,4.52-1.515
			c1.616-1.221,2.67-3.044,2.921-5.055l24.03-192.233h3.322l24.029,192.233c0.252,2.01,1.306,3.833,2.922,5.055
			c1.311,0.989,2.899,1.515,4.521,1.515c0.379,0,0.761-0.029,1.141-0.087l215.367-33.132c2.063-0.317,3.901-1.48,5.071-3.21
			C511.881,440.709,512.278,438.571,511.804,436.537z M429.195,147.533l11.923,51.268h-19.451c-6.037,0-11.863-0.917-17.35-2.616
			v-48.652H429.195z M396.034,48.134h18.133V74.55h-18.133V48.134z M415.71,89.55l9.996,42.983h-28.889c-4.143,0-7.5,3.358-7.5,7.5
			v49.029c-15.902-10.528-26.416-28.569-26.416-49.027V89.55H415.71z M130.966,48.134h250.067V74.55H288.35v-9.067
			c0.001-4.142-3.356-7.5-7.499-7.5s-7.5,3.358-7.5,7.5v9.067h-34.7v-9.067c0-4.142-3.358-7.5-7.5-7.5c-4.142,0-7.5,3.358-7.5,7.5
			v9.067h-92.685V48.134z M97.834,48.134h18.132V74.55H97.834V48.134z M96.29,89.55h52.812v50.486
			c0,20.458-10.515,38.499-26.418,49.027v-49.031c0-4.142-3.358-7.5-7.5-7.5h-28.89L96.29,89.55z M82.806,147.532h24.878v48.653
			c-5.486,1.699-11.312,2.616-17.348,2.616H70.883L82.806,147.532z M216.381,462.782L16.638,432.053l7.81-33.583l196.169,30.428
			L216.381,462.782z M289.519,414.007l-16.743-133.942h16.357c4.143,0,7.5-3.358,7.5-7.5c0.001-4.142-3.356-7.5-7.499-7.5h-66.267
			c-4.142,0-7.5,3.358-7.5,7.5c0,4.142,3.358,7.5,7.5,7.5h16.355l-16.743,133.943L27.855,383.819l39.539-170.018h22.941
			c9.524,0,18.621-1.834,26.986-5.135c0.403-0.12,0.788-0.276,1.16-0.458c26.75-11.085,45.62-37.462,45.62-68.173V89.55h59.549
			v133.316c0,4.142,3.358,7.5,7.5,7.5c4.142,0,7.5-3.358,7.5-7.5V89.55h34.7v83.617c0,4.142,3.357,7.5,7.5,7.5s7.5-3.358,7.5-7.5
			V89.55h59.55v50.486c0,30.695,18.85,57.061,45.578,68.156c0.391,0.195,0.799,0.359,1.225,0.484
			c8.358,3.295,17.448,5.125,26.962,5.125h22.939l39.539,170.018L289.519,414.007z M295.618,462.781l-4.236-33.884l196.17-30.428
			l7.81,33.583L295.618,462.781z"/>
	</g>
</g>
<g>
</g>
<g>
</g>
<g>
</g>
<g>
</g>
<g>
</g>
<g>
</g>
<g>
</g>
<g>
</g>
<g>
</g>
<g>
</g>
<g>
</g>
<g>
</g>
<g>
</g>
<g>
</g>
<g>
</g>
</svg>
