<svg height="512" viewBox="0 0 44 60" width="512" xmlns="http://www.w3.org/2000/svg"><g id="Page-1" fill="none" fill-rule="evenodd"><g id="048---Bra-and-Pants" fill="rgb(0,0,0)" fill-rule="nonzero"><path id="Shape" d="m42 1c0-.55228475-.4477153-1-1-1s-1 .44771525-1 1c.06373 3.41480588-.5020413 6.81214517-1.669 10.022-2.7880088.1045204-5.520022.8135405-8.007 2.078-2.6380795 1.4004713-4.6695018 3.7215884-5.708 6.522-.8435558.2764332-1.7286961.404332-2.616.378-.887479.0253648-1.7726237-.1035496-2.616-.381-1.0391247-2.7992913-3.0704753-5.1192588-5.708-6.519-2.4877093-1.2639987-5.22049054-1.9720173-8.009-2.075-1.17126595-3.20971197-1.73650861-6.60896672-1.667-10.025 0-.55228475-.44771525-1-1-1s-1 .44771525-1 1c-.07207586 3.6629917.53832051 7.30739712 1.8 10.747-2.43748661 2.462423-3.8033077 5.7881974-3.8 9.253 0 6.355 3.66 10 10.043 10 3.9398551-.1340436 7.7076083-1.6470198 10.646-4.275l.006-.009.009-.006c.3500473-.3625596.8020201-.6101681 1.296-.71.4926367.0993298.9435153.3458659 1.293.707l.011.007.007.011c2.9383917 2.6279802 6.7061449 4.1409564 10.646 4.275 6.383 0 10.043-3.645 10.043-10 .0033077-3.4648026-1.3625134-6.790577-3.8-9.253 1.2616795-3.43960288 1.8720759-7.0840083 1.8-10.747zm-31.957 28c-5.262 0-8.043-2.767-8.043-8 .01420991-3.010616 1.23071277-5.8907649 3.379-8 2.59205831.0581547 5.1365278.7080393 7.439 1.9 4.641 2.2 5.87 8.826 6.126 10.689-2.5086354 2.0892154-5.6386222 3.2886745-8.901 3.411zm10.721-4.708c-.1507428-.8179305-.3443428-1.6273789-.58-2.425.6009786.0912686 1.2081367.1357356 1.816.133.6077905.0027738 1.2149004-.041021 1.816-.131-.2357407.7969232-.4293422 1.6057103-.58 2.423-.7780138-.3893204-1.6939862-.3893204-2.472 0zm13.193 4.708c-3.2604999-.1282933-6.3881134-1.3262747-8.9-3.409.257-1.865 1.487-8.485 6.126-10.688 2.3029529-1.1929652 4.8480748-1.8438679 7.441-1.903 2.1553159 2.1041983 3.3722186 4.9878541 3.376 8 0 5.233-2.781 8-8.043 8z"/><path id="Shape" d="m39 36h-34c-.35098542.0000668-.67624251.1841387-.857.485-.128.215-3.143 5.298-3.143 10.515.00003854.2787089.11638911.5447566.321.734.20618694.1867635.47943175.2816953.757.263.016 0 .463-.031 1.178-.014.88 3.431 4.071 5.3 7.3 6.912 1.6005943.7921208 3.1559867 1.6724749 4.659 2.637.7549038.4965244 1.5353071.9531504 2.338 1.368 1.3921318.6651901 2.9052975 1.0394834 4.447 1.1 1.5417025-.0605166 3.0548682-.4348099 4.447-1.1.8036055-.4131306 1.5850102-.8680877 2.341-1.363 1.5030133-.9645251 3.0584057-1.8448792 4.659-2.637 3.226-1.614 6.416-3.48 7.3-6.911.716-.017 1.164.012 1.18.013.2774991.0190878.5507063-.0763179.756-.264.2041585-.1908897.3191116-.4585092.317-.738 0-5.217-3.015-10.3-3.143-10.515-.1807575-.3008613-.5060146-.4849332-.857-.485zm-27.553 17.1c-3.125-1.563-5.186-2.956-6.013-4.948 2.50758934.2834211 4.9033387 1.1941223 6.966 2.648 1.6693643 1.3133185 2.9770649 3.0298476 3.8 4.988-1.5338964-.9808793-3.1206307-1.876568-4.753-2.683zm21.106 0c-1.6323317.8098118-3.2190454 1.7084933-4.753 2.692.8213524-1.9601823 2.1292729-3.6783768 3.8-4.992 2.0632522-1.4498314 4.4580689-2.3573445 6.964-2.639-.828 1.99-2.888 3.382-6.011 4.944zm-2.153-3.9c-2.5713263 2.0639949-4.4131421 4.8980431-5.255 8.086-.9958106.4284419-2.0618081.6704521-3.145.714-1.0831919-.0435479-2.1491894-.2855581-3.145-.714-.8418579-3.1879569-2.6836737-6.0220051-5.255-8.086-3.1063174-2.1288028-6.79034111-3.2546706-10.556-3.226.12903028-1.3527604.41323134-2.6861901.847-3.974h12.109c.5522847 0 1-.4477153 1-1s-.4477153-1-1-1h-11.361c.368-.868.72-1.57.949-2h32.824c.229.43.581 1.132.949 2h-11.361c-.5522847 0-1 .4477153-1 1s.4477153 1 1 1h12.109c.4337687 1.2878099.7179697 2.6212396.847 3.974-3.7656963-.0289276-7.4497953 1.0969632-10.556 3.226z"/><path id="Shape" d="m24 40c-.6919346-.0154752-1.3775784.1343379-2 .437-.6224216-.3026621-1.3080654-.4524752-2-.437-.5522847 0-1 .4477153-1 1s.4477153 1 1 1c.3464231.0009915.6900965.0615402 1.016.179.0861553.475824.500439.8218315.984.8218315s.8978447-.3460075.984-.8218315c.3257216-.1181419.6695148-.1787118 1.016-.179.5522847 0 1-.4477153 1-1s-.4477153-1-1-1z"/></g></g></svg>