<?xml version="1.0"?>
<svg xmlns="http://www.w3.org/2000/svg" id="Icons" viewBox="0 0 74 74" width="512" height="512"><path d="M55.9,40.125a1,1,0,0,1-1-1v-4.25a1,1,0,0,1,2,0v4.25A1,1,0,0,1,55.9,40.125Z"/><path d="M36.876,52.82A15.82,15.82,0,1,1,52.7,37,15.838,15.838,0,0,1,36.876,52.82Zm0-29.641A13.82,13.82,0,1,0,50.7,37,13.836,13.836,0,0,0,36.876,23.18Z"/><path d="M45.679,26.084a1,1,0,0,1-.972-.766L43,18.239H30.748l-1.7,7.079a1,1,0,0,1-1.945-.468l1.887-7.845a1,1,0,0,1,.973-.766H43.793a1,1,0,0,1,.973.766l1.887,7.845a1,1,0,0,1-.974,1.234Z"/><path d="M41.446,18.239h-9.14a1,1,0,0,1-1-1V3a1,1,0,0,1,1-1h9.14a1,1,0,0,1,1,1V17.239A1,1,0,0,1,41.446,18.239Zm-8.14-2h7.14V4h-7.14Z"/><path d="M43.793,57.761H29.96a1,1,0,0,1-.973-.766L27.1,49.149a1,1,0,0,1,1.945-.468l1.7,7.079H43l1.7-7.079a1,1,0,0,1,1.945.468l-1.887,7.845A1,1,0,0,1,43.793,57.761Z"/><path d="M41.446,72h-9.14a1,1,0,0,1-1-1V56.761a1,1,0,0,1,1-1h9.14a1,1,0,0,1,1,1V71A1,1,0,0,1,41.446,72Zm-8.14-2h7.14V57.761h-7.14Z"/><path d="M55.9,38H51.7a1,1,0,0,1,0-2h4.2a1,1,0,0,1,0,2Z"/><path d="M33.813,41.188a1,1,0,0,1-.707-1.707L36,36.586V28a1,1,0,0,1,2,0v9a1,1,0,0,1-.293.707L34.52,40.895A1,1,0,0,1,33.813,41.188Z"/></svg>
